<svg xmlns="http://www.w3.org/2000/svg" width="800" height="900" viewBox="0 0 800 900"><defs><marker id="arrowhead" markerHeight="10" markerWidth="10" orient="auto" refX="9" refY="3"><path fill="#14b8a6" d="m0 0 10 3L0 6z"/></marker><style>.box{fill:#fff;stroke:#1e40af;stroke-width:2}.header{fill:#1e40af}.text{fill:#1f2937;font-size:14px}.header-text,.small-text,.text{font-family:system-ui,-apple-system,sans-serif}.header-text{fill:#fff;font-size:14px;font-weight:600}.small-text{fill:#4b5563;font-size:12px}.arrow{fill:none;stroke:#14b8a6;stroke-width:2;marker-end:url(#arrowhead)}</style></defs><text x="400" y="30" class="text" font-size="20" font-weight="600" text-anchor="middle">Tapestry Architecture</text><path d="M50 60h700v80H50z" class="box"/><path d="M50 60h700v30H50z" class="header"/><text x="400" y="82" class="header-text" text-anchor="middle">Fabric Loader</text><text x="400" y="110" class="small-text" text-anchor="middle">Minecraft mod loader - discovers and initializes Tapestry</text><path d="M50 160h700v80H50z" class="box"/><path d="M50 160h700v30H50z" class="header"/><text x="400" y="182" class="header-text" text-anchor="middle">TapestryMod Bootstrap</text><text x="400" y="210" class="small-text" text-anchor="middle">Validation, TypeScript pipeline, core initialization</text><path d="M50 260h700v560H50z" style="fill:none;stroke:#e5e7eb;stroke-width:2;stroke-dasharray:5,5"/><text x="400" y="285" class="text" font-weight="600" text-anchor="middle">Core Subsystems</text><path d="M70 300h320v100H70z" class="box"/><path d="M70 300h320v30H70z" class="header"/><text x="230" y="322" class="header-text" text-anchor="middle">PhaseController</text><text x="230" y="350" class="small-text" text-anchor="middle">Global phase state machine</text><text x="230" y="370" class="small-text" text-anchor="middle">Phase guards and transitions</text><text x="230" y="390" class="small-text" text-anchor="middle">Enforces lifecycle boundaries</text><path d="M410 300h320v100H410z" class="box"/><path d="M410 300h320v30H410z" class="header"/><text x="570" y="322" class="header-text" text-anchor="middle">Extension System</text><text x="570" y="350" class="small-text" text-anchor="middle">Extension discovery &amp; validation</text><text x="570" y="370" class="small-text" text-anchor="middle">API registration &amp; freezing</text><text x="570" y="390" class="small-text" text-anchor="middle">Capability management</text><path d="M70 420h320v100H70z" class="box"/><path d="M70 420h320v30H70z" class="header"/><text x="230" y="442" class="header-text" text-anchor="middle">TypeScript Runtime</text><text x="230" y="470" class="small-text" text-anchor="middle">GraalVM JavaScript context</text><text x="230" y="490" class="small-text" text-anchor="middle">API injection &amp; script execution</text><text x="230" y="510" class="small-text" text-anchor="middle">Mod context tracking</text><path d="M410 420h320v100H410z" class="box"/><path d="M410 420h320v30H410z" class="header"/><text x="570" y="442" class="header-text" text-anchor="middle">ModRegistry</text><text x="570" y="470" class="small-text" text-anchor="middle">Mod discovery &amp; descriptors</text><text x="570" y="490" class="small-text" text-anchor="middle">Dependency validation</text><text x="570" y="510" class="small-text" text-anchor="middle">Activation ordering</text><path d="M70 540h320v100H70z" class="box"/><path d="M70 540h320v30H70z" class="header"/><text x="230" y="562" class="header-text" text-anchor="middle">Runtime Services</text><text x="230" y="590" class="small-text" text-anchor="middle">Event bus &amp; state coordinator</text><text x="230" y="610" class="small-text" text-anchor="middle">Scheduler &amp; configuration</text><text x="230" y="630" class="small-text" text-anchor="middle">Player service</text><path d="M410 540h320v100H410z" class="box"/><path d="M410 540h320v30H410z" class="header"/><text x="570" y="562" class="header-text" text-anchor="middle">RPC Stack</text><text x="570" y="590" class="small-text" text-anchor="middle">Packet handler &amp; handshake</text><text x="570" y="610" class="small-text" text-anchor="middle">Dispatcher &amp; rate limiting</text><text x="570" y="630" class="small-text" text-anchor="middle">Client-server bridge</text><path d="M70 660h320v100H70z" class="box"/><path d="M70 660h320v30H70z" class="header"/><text x="230" y="682" class="header-text" text-anchor="middle">Client Presentation</text><text x="230" y="710" class="small-text" text-anchor="middle">Overlay registration &amp; rendering</text><text x="230" y="730" class="small-text" text-anchor="middle">UI validation</text><text x="230" y="750" class="small-text" text-anchor="middle">Frame-by-frame updates</text><path d="M410 660h320v100H410z" class="box"/><path d="M410 660h320v30H410z" class="header"/><text x="570" y="682" class="header-text" text-anchor="middle">Persistence</text><text x="570" y="710" class="small-text" text-anchor="middle">Per-mod state stores</text><text x="570" y="730" class="small-text" text-anchor="middle">Service-side initialization</text><text x="570" y="750" class="small-text" text-anchor="middle">Disk persistence</text><path d="M400 140v20" class="arrow"/><path d="M400 240v20" class="arrow"/><text x="50" y="860" class="small-text" font-weight="600">Key Principles:</text><text x="50" y="880" class="small-text">• Hard boundaries between subsystems</text><text x="300" y="880" class="small-text">• Phase-gated operations</text><text x="500" y="880" class="small-text">• Fail-fast error handling</text></svg>